<svg xmlns="http://www.w3.org/2000/svg" xmlns:xlink="http://www.w3.org/1999/xlink" width="22" height="22" version="1.1" viewBox="0 0 22 22"><title>ic-check-active</title><desc>Created with Sketch.</desc><g id="Page-1" fill="none" fill-rule="evenodd" stroke="none" stroke-width="1"><g id="ic-check-active" transform="translate(-1.000000, -1.000000)"><g id="Group_8199" fill="#5C4B7D" transform="translate(1.000000, 1.000000)"><path id="check_on_light" d="M19.556,0 L2.444,0 C1.09603898,0.0043907874 0.0043907874,1.09603898 4.4408921e-16,2.444 L4.4408921e-16,19.556 C0.0043907874,20.903961 1.09603898,21.9956092 2.444,22 L19.556,22 C20.903961,21.9956092 21.9956092,20.903961 22,19.556 L22,2.444 C21.9956092,1.09603898 20.903961,0.0043907874 19.556,0 Z M3,10 L19,10 L19,13 L3,13 L3,10 Z"/></g><polygon id="Rectangle_4538" points="0 0 24 0 24 24 0 24"/></g></g></svg>