<svg xmlns="http://www.w3.org/2000/svg" xmlns:xlink="http://www.w3.org/1999/xlink" width="18" height="17" version="1.1" viewBox="0 0 18 17"><title>ic-close-white</title><desc>Created with Sketch.</desc><g id="Page-1" fill="none" fill-rule="evenodd" stroke="none" stroke-width="1"><g id="ic-close-white" transform="translate(-1.000000, -2.000000)"><g id="ic_close"><polygon id="Rectangle_3745" points="0 0 20 0 20 20 0 20"/><path id="Path_18563" fill="#FFF" d="M17.8,16.8 L11.1,10 L17.8,3.2 L18.3,2.7 L17.8,2.2 C17.4946361,1.90014879 17.0053639,1.90014879 16.7,2.2 L10,8.9 L3.3,2.2 C2.99463611,1.90014879 2.50536389,1.90014879 2.2,2.2 L1.7,2.7 L2.2,3.2 L8.9,10 L2.2,16.8 C1.90014879,17.1053639 1.90014879,17.5946361 2.2,17.9 L2.7,18.4 L3.2,17.9 L9.9,11.1 L16.6,17.9 L17.1,18.4 L17.6,17.9 C18.1,17.5 18.1,17 17.8,16.8 Z" opacity=".696"/></g></g></g></svg>