<svg xmlns="http://www.w3.org/2000/svg" xmlns:xlink="http://www.w3.org/1999/xlink" width="24" height="40" version="1.1" viewBox="0 0 24 40"><title>Dashboard</title><desc>Created with Sketch.</desc><g id="Dashboard" fill="none" fill-rule="evenodd" stroke="none" stroke-width="1"><g id="Group" fill="#938DA5" fill-rule="nonzero" transform="translate(1.000000, 11.000000)"><g id="Group_8812"><path id="Path_18866" d="M10,8 L0,8 L0,0 L10,0 L10,8 Z M2,6 L8,6 L8,2 L2,2 L2,6 Z"/></g><g id="Group_8813" transform="translate(12.000000, 0.000000)"><path id="Path_18867" d="M10,22 L0,22 L0,0 L10,0 L10,22 Z M2,20 L8,20 L8,2 L2,2 L2,20 Z"/></g><g id="Group_8814" transform="translate(0.000000, 10.000000)"><path id="Path_18868" d="M10,12 L0,12 L0,0 L10,0 L10,12 Z M2,10 L8,10 L8,2 L2,2 L2,10 Z"/></g></g></g></svg>