<svg xmlns="http://www.w3.org/2000/svg" xmlns:xlink="http://www.w3.org/1999/xlink" width="24" height="40" version="1.1" viewBox="0 0 24 40"><title>Dashboard</title><desc>Created with Sketch.</desc><g id="Dashboard" fill="none" fill-rule="evenodd" stroke="none" stroke-width="1"><path id="Path_18866" fill="#FFF" fill-rule="nonzero" d="M11,19 L1,19 L1,11 L11,11 L11,19 Z M3,17 L9,17 L9,13 L3,13 L3,17 Z"/><path id="Path_18867" fill="#FFF" fill-rule="nonzero" d="M23,33 L13,33 L13,11 L23,11 L23,33 Z M15,31 L21,31 L21,13 L15,13 L15,31 Z"/><path id="Path_18868" fill="#FFF" fill-rule="nonzero" d="M11,33 L1,33 L1,21 L11,21 L11,33 Z M3,31 L9,31 L9,23 L3,23 L3,31 Z"/></g></svg>