<svg xmlns="http://www.w3.org/2000/svg" xmlns:xlink="http://www.w3.org/1999/xlink" width="28" height="24" version="1.1" viewBox="0 0 28 24"><title>Sub Menu Locked Copy 2</title><desc>Created with Sketch.</desc><g id="Sub-Menu-Locked-Copy-2" fill="none" fill-rule="evenodd" stroke="none" stroke-width="1"><g id="ic-check-locked" transform="translate(4.000000, 0.000000)"><path id="Path_18899" fill="#FFF" fill-rule="nonzero" d="M18,10 L18,8 C18,4.6862915 15.3137085,2 12,2 C8.6862915,2 6,4.6862915 6,8 L6,10 L4,10 L4,22 L20,22 L20,10 L18,10 Z M8,8 C8,5.790861 9.790861,4 12,4 C14.209139,4 16,5.790861 16,8 L16,10 L8,10 L8,8 Z M18,20 L6,20 L6,12 L18,12 L18,20 Z"/><polygon id="Rectangle_4417" points="0 0 24 0 24 24 0 24"/></g></g></svg>